<svg xmlns="http://www.w3.org/2000/svg" viewBox="0 0 64 64" fill="none">
  <rect width="64" height="64" rx="14" fill="#1e293b"/>
  <!-- Left page -->
  <path d="M10 16 C10 14.9 10.9 14 12 14 L30 14 L30 50 L12 50 C10.9 50 10 49.1 10 48 Z" fill="#334155"/>
  <!-- Right page -->
  <path d="M34 14 L52 14 C53.1 14 54 14.9 54 16 L54 48 C54 49.1 53.1 50 52 50 L34 50 Z" fill="#334155"/>
  <!-- Spine -->
  <rect x="29" y="14" width="6" height="36" rx="1" fill="#475569"/>
  <!-- Left lines -->
  <line x1="15" y1="22" x2="27" y2="22" stroke="#94a3b8" stroke-width="1.5" stroke-linecap="round"/>
  <line x1="15" y1="27" x2="27" y2="27" stroke="#94a3b8" stroke-width="1.5" stroke-linecap="round"/>
  <line x1="15" y1="32" x2="27" y2="32" stroke="#94a3b8" stroke-width="1.5" stroke-linecap="round"/>
  <line x1="15" y1="37" x2="22" y2="37" stroke="#94a3b8" stroke-width="1.5" stroke-linecap="round"/>
  <!-- Right lines -->
  <line x1="37" y1="22" x2="49" y2="22" stroke="#94a3b8" stroke-width="1.5" stroke-linecap="round"/>
  <line x1="37" y1="27" x2="49" y2="27" stroke="#94a3b8" stroke-width="1.5" stroke-linecap="round"/>
  <line x1="37" y1="32" x2="49" y2="32" stroke="#94a3b8" stroke-width="1.5" stroke-linecap="round"/>
  <line x1="37" y1="37" x2="44" y2="37" stroke="#94a3b8" stroke-width="1.5" stroke-linecap="round"/>
</svg>
