<svg xmlns="http://www.w3.org/2000/svg" viewBox="0 0 64 64" fill="none">
  <rect width="64" height="64" rx="14" fill="#1a2744"/>
  <!-- Column header pills: To Do / In Progress / Done -->
  <rect x="8"  y="10" width="15" height="4" rx="2" fill="#3b82f6"/>
  <rect x="25" y="10" width="15" height="4" rx="2" fill="#f59e0b"/>
  <rect x="42" y="10" width="15" height="4" rx="2" fill="#10b981"/>
  <!-- Column 1 cards -->
  <rect x="8"  y="17" width="15" height="10" rx="2.5" fill="#243656"/>
  <rect x="8"  y="30" width="15" height="10" rx="2.5" fill="#243656"/>
  <rect x="8"  y="43" width="15" height="10" rx="2.5" fill="#243656"/>
  <!-- Column 2 cards -->
  <rect x="25" y="17" width="15" height="10" rx="2.5" fill="#3a2e15"/>
  <rect x="25" y="30" width="15" height="10" rx="2.5" fill="#3a2e15"/>
  <!-- Column 3 card -->
  <rect x="42" y="17" width="15" height="10" rx="2.5" fill="#0e2e22"/>
  <!-- Card text lines -->
  <rect x="10" y="20.5" width="11" height="1.5" rx="0.75" fill="#93c5fd" opacity="0.8"/>
  <rect x="10" y="23.5" width="7"  height="1.5" rx="0.75" fill="#93c5fd" opacity="0.4"/>
  <rect x="10" y="33.5" width="11" height="1.5" rx="0.75" fill="#93c5fd" opacity="0.8"/>
  <rect x="10" y="36.5" width="8"  height="1.5" rx="0.75" fill="#93c5fd" opacity="0.4"/>
  <rect x="10" y="46.5" width="11" height="1.5" rx="0.75" fill="#93c5fd" opacity="0.8"/>
  <rect x="10" y="49.5" width="6"  height="1.5" rx="0.75" fill="#93c5fd" opacity="0.4"/>
  <rect x="27" y="20.5" width="11" height="1.5" rx="0.75" fill="#fcd34d" opacity="0.8"/>
  <rect x="27" y="23.5" width="8"  height="1.5" rx="0.75" fill="#fcd34d" opacity="0.4"/>
  <rect x="27" y="33.5" width="11" height="1.5" rx="0.75" fill="#fcd34d" opacity="0.8"/>
  <rect x="27" y="36.5" width="6"  height="1.5" rx="0.75" fill="#fcd34d" opacity="0.4"/>
  <rect x="44" y="20.5" width="11" height="1.5" rx="0.75" fill="#6ee7b7" opacity="0.8"/>
  <rect x="44" y="23.5" width="8"  height="1.5" rx="0.75" fill="#6ee7b7" opacity="0.4"/>
</svg>
